<?xml version="1.0" encoding="utf-8"?>
<!-- Generator: Adobe Illustrator 27.0.0, SVG Export Plug-In . SVG Version: 6.00 Build 0)  -->
<svg version="1.1" id="레이어_1" xmlns="http://www.w3.org/2000/svg" xmlns:xlink="http://www.w3.org/1999/xlink" x="0px"
	 y="0px" viewBox="0 0 485.7 180" style="enable-background:new 0 0 485.7 180;" xml:space="preserve">
<style type="text/css">
	.st0{fill:#FFFFFF;}
</style>
<g id="Layer_1">
	<path class="st0" d="M484.6,159.8l-4.6,0.5l-12.4,1.3l-18.4,1.9l-22.4,2.3l-24.4,2.5l-24.7,2.6l-23.1,2.4l-19.5,2l-14,1.5l-4.4,0.5
		c-0.8,0-1.5,0.1-2.3,0.2c-0.1,0-0.2,0-0.3,0l1.2,1.2l-3.4-32.7l-0.5-4.6c-0.1-1.5-2.6-1.5-2.4,0l3.4,32.7l0.5,4.6
		c0.1,0.6,0.5,1.3,1.2,1.2l4.6-0.5l12.4-1.3l18.4-1.9l22.3-2.3l24.4-2.5l24.8-2.6l23.1-2.4l19.5-2l14-1.5c2.2-0.2,4.4-0.4,6.6-0.7
		h0.3C486.1,162.1,486.1,159.7,484.6,159.8L484.6,159.8z"/>
	<path class="st0" d="M297.5,20.1l4.6-0.5l12.4-1.3l18.4-1.9l22.4-2.3l24.4-2.5L404.4,9l23.1-2.4l19.5-2l14-1.5l4.4-0.5
		c0.8,0,1.5-0.1,2.3-0.2c0.1,0,0.2,0,0.3,0l-1.2-1.2l1.4,13.1l3.3,31.7l3.9,38.2l3.4,33.2c0.5,5.3,1,10.7,1.6,16c0,0.1,0,0.1,0,0.2
		c0.1,1.5,2.6,1.5,2.4,0l-1.4-13.2l-3.3-31.7l-3.9-38.2l-3.4-33.2c-0.5-5.3-1-10.7-1.6-16c0-0.1,0-0.1,0-0.2
		c-0.1-0.6-0.5-1.3-1.2-1.2l-4.6,0.5L451,1.8l-18.4,1.9L410.2,6l-24.4,2.5l-24.8,2.6L338,13.5l-19.5,2l-14,1.5l-6.6,0.7h-0.3
		C296,17.8,296,20.2,297.5,20.1L297.5,20.1z"/>
	<path class="st0" d="M426.7,94.6l23.2,22.6c1.7,1.5,4.2,1.6,5.9,0.1l0,0c1.5-1.3,1.6-3.5,0.4-5c-0.1-0.1-0.3-0.3-0.4-0.4
		l-55.5-50.5c0,0-6.2,7.4-1.2,12.4c3.9,3.9,14.8,14.9,17.3,15.8c4.6,1.7,5.4,0.4,9,3.8L426.7,94.6"/>
	<path class="st0" d="M422,94.5l-20.4,17.4c-1.5,1.2-1.7,3.5-0.5,5c0.1,0.1,0.3,0.3,0.4,0.4c1.7,1.5,4.3,1.5,5.9-0.1l21.5-20.9
		C428.9,96.3,423.8,92.9,422,94.5z M460.5,68.5L447.2,81l0,0c-0.2,0.2-0.6,0.2-0.8,0c-0.2-0.2-0.2-0.5,0-0.7c0,0,0,0,0,0l0,0l0,0
		l13.3-12.5c2.6-3.4-1-1-1-1L445.1,79l0,0c-0.3,0.2-0.6,0.2-0.9,0c-0.2-0.2-0.2-0.5,0-0.7c0,0,0,0,0,0l0,0l13.4-12.6
		c1.1-1,0.8-1.6,0.8-1.6c-0.8-0.3-1.9,0.8-1.9,0.8l-14,12l0,0c-0.1,0.1-0.3,0.2-0.5,0.2c-0.1,0-0.1,0-0.2-0.1l0,0
		c-0.2-0.2-0.2-0.4,0-0.6c0,0,0,0,0.1,0l0,0l14-12.2c2.1-2.6-0.9-1-0.9-1l-7,5.3l-11,8.5c-0.7,0.5-1.3,1-1.9,1.6
		c-0.3,0.4-0.6,0.8-0.8,1.2c-0.5,1.3-0.2,2.7,0.8,3.7l-5.5,4.5c1.3,2.2,5.6,2.1,5.6,2.1l3.4-3.3c1.2,0.7,2.7,1,4.1,0.8
		c0.4-0.1,0.9-0.3,1.2-0.6c0.6-0.6,1.3-1.1,1.9-1.7c1.1-1,2.1-2.1,3.2-3.1c1.3-1.3,2.5-2.6,3.8-3.9s2.6-2.7,4.1-4.2l3.3-3.3l1.3-1.4
		C463.5,66.5,460.4,68.5,460.5,68.5L460.5,68.5z"/>
</g>
<g>
	<path class="st0" d="M68.4,115.7h-9.1V62.1h36.9v9.1h-28v13.2h28.1v8.9H68.4V115.7z"/>
	<path class="st0" d="M125.3,75.7c2.3,0,4.4,0.3,6.2,1c1.8,0.7,3.4,1.7,4.7,2.9c1.3,1.3,2.3,2.8,2.9,4.6c0.7,1.8,1,3.8,1,6V101
		c0,2.2-0.3,4.2-1,6c-0.7,1.8-1.6,3.3-2.9,4.6c-1.3,1.3-2.8,2.3-4.7,3c-1.8,0.7-3.9,1-6.2,1h-3.2c-2.3,0-4.3-0.3-6.1-1
		c-1.8-0.7-3.4-1.7-4.7-3c-1.3-1.3-2.3-2.8-2.9-4.6c-0.7-1.8-1-3.8-1-6V90.3c0-2.2,0.3-4.2,1-6c0.7-1.8,1.6-3.3,2.9-4.6
		c1.3-1.3,2.8-2.2,4.7-2.9c1.8-0.7,3.9-1,6.1-1H125.3z M122.1,84.7c-1.6,0-3,0.5-4.1,1.6c-1.1,1.1-1.7,2.5-1.7,4.2v10.3
		c0,1.7,0.6,3.1,1.7,4.2c1.1,1.1,2.5,1.6,4.1,1.6h3.2c1.7,0,3.1-0.5,4.2-1.6c1.1-1.1,1.6-2.5,1.6-4.2V90.5c0-1.7-0.5-3.1-1.6-4.2
		c-1.1-1.1-2.5-1.6-4.2-1.6H122.1z"/>
	<path class="st0" d="M169.2,75.7c2.3,0,4.4,0.3,6.2,1c1.8,0.7,3.4,1.7,4.7,2.9c1.3,1.3,2.3,2.8,2.9,4.6c0.7,1.8,1,3.8,1,6V101
		c0,2.2-0.3,4.2-1,6c-0.7,1.8-1.6,3.3-2.9,4.6c-1.3,1.3-2.8,2.3-4.7,3c-1.8,0.7-3.9,1-6.2,1H166c-2.3,0-4.3-0.3-6.1-1
		c-1.8-0.7-3.4-1.7-4.7-3c-1.3-1.3-2.3-2.8-2.9-4.6c-0.7-1.8-1-3.8-1-6V90.3c0-2.2,0.3-4.2,1-6c0.7-1.8,1.6-3.3,2.9-4.6
		c1.3-1.3,2.8-2.2,4.7-2.9c1.8-0.7,3.9-1,6.1-1H169.2z M166,84.7c-1.6,0-3,0.5-4.1,1.6c-1.1,1.1-1.7,2.5-1.7,4.2v10.3
		c0,1.7,0.6,3.1,1.7,4.2c1.1,1.1,2.5,1.6,4.1,1.6h3.2c1.7,0,3.1-0.5,4.2-1.6c1.1-1.1,1.6-2.5,1.6-4.2V90.5c0-1.7-0.5-3.1-1.6-4.2
		c-1.1-1.1-2.5-1.6-4.2-1.6H166z"/>
	<path class="st0" d="M209.9,115.7c-2.3,0-4.3-0.3-6.1-1c-1.8-0.7-3.4-1.7-4.7-3c-1.3-1.3-2.3-2.8-2.9-4.6c-0.7-1.8-1-3.8-1-6V90.3
		c0-2.2,0.3-4.2,1-6c0.7-1.8,1.6-3.3,2.9-4.6c1.3-1.3,2.8-2.2,4.7-2.9c1.8-0.7,3.9-1,6.1-1h3.2c2.2,0,4.2,0.3,5.9,0.9V62.1h8.9v53.6
		H209.9z M219.1,106.7V90.5c0-1.7-0.6-3.1-1.7-4.2c-1.1-1.1-2.5-1.6-4.2-1.6h-3.2c-1.7,0-3.1,0.5-4.3,1.6c-1.2,1.1-1.8,2.5-1.8,4.2
		v10.3c0,1.7,0.6,3.1,1.8,4.2c1.2,1.1,2.6,1.6,4.3,1.6H219.1z"/>
	<path class="st0" d="M249.4,71.3h-9.3v-9.2h9.3V71.3z M249.4,115.7h-9.3V75.7h9.3V115.7z"/>
	<path class="st0" d="M261.7,89.9c0-1.9,0.4-3.8,1.1-5.5c0.7-1.7,1.7-3.2,2.9-4.5c1.2-1.3,2.6-2.3,4.2-3.1s3.1-1.1,4.7-1.1h8.9
		c2.1,0,3.9,0.4,5.5,1.3c1.6,0.9,2.9,2,4,3.3c1.1,1.3,1.9,2.8,2.5,4.5c0.6,1.7,0.9,3.3,0.9,4.8v10.1H271v2.1c0,1.9,0.5,3.2,1.6,4
		s2.5,1.2,4.2,1.2h18.3v8.8h-20.4c-1.8,0-3.4-0.3-5-1c-1.6-0.7-3-1.6-4.1-2.9c-1.2-1.2-2.1-2.7-2.8-4.3c-0.7-1.7-1-3.5-1-5.5V89.9z
		 M271.1,92.3h16.3v-0.4c0-2-0.5-3.7-1.6-5c-1-1.3-2.5-2-4.2-2h-4.9c-0.8,0-1.6,0.2-2.3,0.6c-0.7,0.4-1.3,0.9-1.7,1.5
		c-0.5,0.7-0.9,1.4-1.1,2.3c-0.3,0.9-0.4,1.8-0.4,2.7V92.3z"/>
	<path class="st0" d="M345.2,79.6c0,1.7-0.3,3.4-1,5c-0.7,1.6-1.6,3.1-2.8,4.3h0.1c1.6,1.1,2.7,2.5,3.4,4.2c0.7,1.7,1,3.4,1,5.1v3.3
		c0,2.2-0.3,4.2-0.9,6c-0.6,1.8-1.5,3.3-2.6,4.5c-1.1,1.2-2.5,2.1-4,2.8s-3.3,0.9-5.2,0.9h-24.4V62.1h23.7c1.9,0,3.6,0.3,5.2,0.9
		s2.9,1.5,4.1,2.7c1.1,1.2,2,2.5,2.6,4.2c0.6,1.6,0.9,3.4,0.9,5.3V79.6z M318,84.4h12.7c0.7,0,1.4-0.2,2-0.5s1.2-0.7,1.7-1.3
		c0.5-0.5,0.9-1.1,1.1-1.9c0.3-0.7,0.4-1.5,0.4-2.3v-0.8c0-0.8-0.1-1.5-0.4-2.2c-0.3-0.7-0.7-1.3-1.1-1.9c-0.5-0.5-1-1-1.7-1.3
		c-0.6-0.3-1.3-0.5-2-0.5H318V84.4z M336.6,99.3c0-0.8-0.1-1.6-0.4-2.3c-0.3-0.7-0.7-1.3-1.1-1.9c-0.5-0.5-1-0.9-1.7-1.3
		c-0.7-0.3-1.3-0.5-2-0.5H318v12.3h13.4c0.7,0,1.4-0.2,2-0.5c0.7-0.3,1.2-0.7,1.7-1.3c0.5-0.5,0.9-1.1,1.1-1.9
		c0.3-0.7,0.4-1.5,0.4-2.3V99.3z"/>
	<path class="st0" d="M373.9,75.7c2.3,0,4.4,0.3,6.2,1s3.4,1.7,4.7,2.9c1.3,1.3,2.3,2.8,2.9,4.6c0.7,1.8,1,3.8,1,6V101
		c0,2.2-0.3,4.2-1,6s-1.6,3.3-2.9,4.6c-1.3,1.3-2.8,2.3-4.7,3c-1.8,0.7-3.9,1-6.2,1h-3.2c-2.3,0-4.3-0.3-6.1-1
		c-1.8-0.7-3.4-1.7-4.7-3c-1.3-1.3-2.3-2.8-2.9-4.6c-0.7-1.8-1-3.8-1-6V90.3c0-2.2,0.3-4.2,1-6c0.7-1.8,1.6-3.3,2.9-4.6
		s2.8-2.2,4.7-2.9s3.9-1,6.1-1H373.9z M370.7,84.7c-1.6,0-3,0.5-4.1,1.6c-1.1,1.1-1.7,2.5-1.7,4.2v10.3c0,1.7,0.6,3.1,1.7,4.2
		c1.1,1.1,2.5,1.6,4.1,1.6h3.2c1.7,0,3.1-0.5,4.2-1.6c1.1-1.1,1.6-2.5,1.6-4.2V90.5c0-1.7-0.5-3.1-1.6-4.2c-1.1-1.1-2.5-1.6-4.2-1.6
		H370.7z"/>
</g>
<g>
	<g>
		<path class="st0" d="M58,137.2c0-0.4,0.1-0.7,0.2-1c0.1-0.3,0.3-0.6,0.6-0.9s0.5-0.4,0.8-0.6c0.3-0.1,0.6-0.2,0.9-0.2h1.7
			c0.4,0,0.7,0.1,1,0.2c0.3,0.2,0.6,0.4,0.8,0.6c0.2,0.3,0.4,0.5,0.5,0.9c0.1,0.3,0.2,0.6,0.2,0.9v1.9h-4.9v0.4
			c0,0.4,0.1,0.6,0.3,0.8c0.2,0.1,0.5,0.2,0.8,0.2h3.5v1.7h-3.9c-0.3,0-0.7-0.1-1-0.2s-0.6-0.3-0.8-0.5c-0.2-0.2-0.4-0.5-0.5-0.8
			c-0.1-0.3-0.2-0.7-0.2-1V137.2z M59.7,137.7h3.1v-0.1c0-0.4-0.1-0.7-0.3-1c-0.2-0.3-0.5-0.4-0.8-0.4h-0.9c-0.2,0-0.3,0-0.4,0.1
			c-0.1,0.1-0.2,0.2-0.3,0.3c-0.1,0.1-0.2,0.3-0.2,0.4C59.8,137.3,59.7,137.4,59.7,137.7L59.7,137.7z"/>
		<path class="st0" d="M72.2,136h-3c-0.1,0-0.2,0-0.3,0.1c-0.1,0-0.2,0.1-0.2,0.2s-0.1,0.2-0.1,0.3c0,0.1,0,0.2,0,0.3
			c0,0.2,0.1,0.4,0.2,0.5c0.1,0.2,0.3,0.2,0.5,0.2h1.7c0.4,0,0.7,0.1,0.9,0.2c0.3,0.1,0.5,0.3,0.7,0.5s0.3,0.5,0.4,0.8
			s0.1,0.6,0.1,0.9v0c0,0.3-0.1,0.6-0.2,0.9s-0.3,0.5-0.4,0.7c-0.2,0.2-0.4,0.3-0.7,0.5c-0.3,0.1-0.5,0.2-0.8,0.2h-3.6v-1.5h3.1
			c0.2,0,0.4-0.1,0.6-0.2c0.2-0.1,0.3-0.3,0.3-0.6v0c0-0.1,0-0.3-0.1-0.4c-0.1-0.1-0.1-0.2-0.2-0.2c-0.1-0.1-0.2-0.1-0.3-0.1
			c-0.1,0-0.2,0-0.3,0h-1.3c-0.4,0-0.8-0.1-1.1-0.2c-0.3-0.1-0.5-0.3-0.7-0.5s-0.3-0.5-0.3-0.8s-0.1-0.6-0.1-0.9
			c0-0.3,0-0.6,0.1-0.9c0.1-0.3,0.2-0.5,0.4-0.7c0.2-0.2,0.4-0.4,0.6-0.5c0.3-0.1,0.6-0.2,0.9-0.2h3.3V136z"/>
		<path class="st0" d="M74.9,134.5h1.4v-2.6H78v2.6h1.4v1.7H78v5.9h-1.8v-5.9h-1.4V134.5z"/>
		<path class="st0" d="M86.4,139.9c0.7-0.5,1.4-1.1,2-1.7c0.7-0.6,1.3-1.1,1.9-1.7c0.2-0.2,0.3-0.3,0.4-0.4c0.1-0.1,0.2-0.3,0.3-0.4
			c0.1-0.1,0.1-0.3,0.2-0.4c0-0.2,0.1-0.3,0.1-0.6c0-0.2,0-0.3-0.1-0.5c-0.1-0.2-0.2-0.3-0.3-0.4c-0.1-0.1-0.2-0.2-0.4-0.3
			c-0.1-0.1-0.3-0.1-0.5-0.1h-0.8c-0.2,0-0.3,0-0.5,0.1c-0.1,0.1-0.3,0.2-0.4,0.3c-0.1,0.1-0.2,0.2-0.3,0.4
			c-0.1,0.2-0.1,0.3-0.1,0.5v0.4h-1.6v-0.7c0-0.4,0.1-0.7,0.2-1c0.1-0.3,0.3-0.6,0.6-0.8c0.2-0.2,0.5-0.4,0.9-0.6
			c0.3-0.1,0.7-0.2,1-0.2h1.3c0.4,0,0.7,0.1,1,0.2c0.3,0.1,0.6,0.3,0.9,0.6s0.4,0.5,0.6,0.8c0.1,0.3,0.2,0.7,0.2,1v0.2
			c0,0.3,0,0.6,0,0.8c0,0.2-0.1,0.5-0.2,0.7c-0.1,0.2-0.2,0.4-0.3,0.6s-0.3,0.4-0.6,0.7c-0.6,0.5-1.2,1.1-1.8,1.6s-1.3,1-1.9,1.5
			h4.7v1.5h-6.4V139.9z"/>
		<path class="st0" d="M99.3,131.9c0.4,0,0.7,0.1,1.1,0.2c0.3,0.1,0.6,0.3,0.9,0.6s0.5,0.5,0.6,0.9c0.1,0.3,0.2,0.7,0.2,1.1v4.7
			c0,0.4-0.1,0.7-0.2,1.1c-0.1,0.3-0.3,0.6-0.6,0.9s-0.5,0.5-0.9,0.6c-0.3,0.1-0.7,0.2-1.1,0.2h-1.5c-0.4,0-0.7-0.1-1.1-0.2
			c-0.3-0.1-0.6-0.3-0.9-0.6s-0.4-0.5-0.6-0.9c-0.1-0.3-0.2-0.7-0.2-1.1v-4.7c0-0.4,0.1-0.7,0.2-1.1s0.3-0.6,0.6-0.9
			s0.5-0.5,0.9-0.6c0.3-0.1,0.7-0.2,1.1-0.2H99.3z M100.4,135c0-0.2,0-0.3-0.1-0.5c-0.1-0.2-0.2-0.3-0.3-0.4
			c-0.1-0.1-0.2-0.2-0.4-0.3c-0.2-0.1-0.3-0.1-0.5-0.1H98c-0.2,0-0.3,0-0.5,0.1c-0.2,0.1-0.3,0.2-0.4,0.3c-0.1,0.1-0.2,0.3-0.3,0.4
			c-0.1,0.2-0.1,0.3-0.1,0.5v4.1c0,0.2,0,0.3,0.1,0.5s0.2,0.3,0.3,0.4c0.1,0.1,0.2,0.2,0.4,0.3c0.2,0.1,0.3,0.1,0.5,0.1h1.1
			c0.2,0,0.3,0,0.5-0.1c0.2-0.1,0.3-0.2,0.4-0.3c0.1-0.1,0.2-0.3,0.3-0.4s0.1-0.3,0.1-0.5V135z"/>
		<path class="st0" d="M104.4,139.9c0.7-0.5,1.4-1.1,2-1.7c0.7-0.6,1.3-1.1,1.9-1.7c0.2-0.2,0.3-0.3,0.4-0.4
			c0.1-0.1,0.2-0.3,0.3-0.4c0.1-0.1,0.1-0.3,0.2-0.4c0-0.2,0.1-0.3,0.1-0.6c0-0.2,0-0.3-0.1-0.5c-0.1-0.2-0.2-0.3-0.3-0.4
			c-0.1-0.1-0.2-0.2-0.4-0.3c-0.1-0.1-0.3-0.1-0.5-0.1h-0.8c-0.2,0-0.3,0-0.5,0.1c-0.1,0.1-0.3,0.2-0.4,0.3
			c-0.1,0.1-0.2,0.2-0.3,0.4c-0.1,0.2-0.1,0.3-0.1,0.5v0.4h-1.6v-0.7c0-0.4,0.1-0.7,0.2-1c0.1-0.3,0.3-0.6,0.6-0.8
			c0.2-0.2,0.5-0.4,0.9-0.6c0.3-0.1,0.7-0.2,1-0.2h1.3c0.4,0,0.7,0.1,1,0.2c0.3,0.1,0.6,0.3,0.9,0.6s0.4,0.5,0.6,0.8
			c0.1,0.3,0.2,0.7,0.2,1v0.2c0,0.3,0,0.6,0,0.8c0,0.2-0.1,0.5-0.2,0.7c-0.1,0.2-0.2,0.4-0.3,0.6s-0.3,0.4-0.6,0.7
			c-0.6,0.5-1.2,1.1-1.8,1.6s-1.3,1-1.9,1.5h4.7v1.5h-6.4V139.9z"/>
		<path class="st0" d="M112.9,139.9c0.7-0.5,1.4-1.1,2-1.7c0.7-0.6,1.3-1.1,1.9-1.7c0.2-0.2,0.3-0.3,0.4-0.4
			c0.1-0.1,0.2-0.3,0.3-0.4c0.1-0.1,0.1-0.3,0.2-0.4c0-0.2,0.1-0.3,0.1-0.6c0-0.2,0-0.3-0.1-0.5c-0.1-0.2-0.2-0.3-0.3-0.4
			c-0.1-0.1-0.2-0.2-0.4-0.3c-0.1-0.1-0.3-0.1-0.5-0.1h-0.8c-0.2,0-0.3,0-0.5,0.1c-0.1,0.1-0.3,0.2-0.4,0.3
			c-0.1,0.1-0.2,0.2-0.3,0.4c-0.1,0.2-0.1,0.3-0.1,0.5v0.4h-1.6v-0.7c0-0.4,0.1-0.7,0.2-1c0.1-0.3,0.3-0.6,0.6-0.8
			c0.2-0.2,0.5-0.4,0.9-0.6c0.3-0.1,0.7-0.2,1-0.2h1.3c0.4,0,0.7,0.1,1,0.2c0.3,0.1,0.6,0.3,0.9,0.6s0.4,0.5,0.6,0.8
			c0.1,0.3,0.2,0.7,0.2,1v0.2c0,0.3,0,0.6,0,0.8c0,0.2-0.1,0.5-0.2,0.7c-0.1,0.2-0.2,0.4-0.3,0.6s-0.3,0.4-0.6,0.7
			c-0.6,0.5-1.2,1.1-1.8,1.6s-1.3,1-1.9,1.5h4.7v1.5h-6.4V139.9z"/>
	</g>
</g>
<text transform="matrix(1 0 0 1 55.2785 312.8775)" class="st0" style="font-family:'BMDoHyeon'; font-size:63px; letter-spacing:6;">FoodieBo</text>
<g>
	
		<text transform="matrix(1 0 0 1 57.4722 347.0059)" class="st0" style="font-family:'BMDoHyeon'; font-size:12px; letter-spacing:1;">est 2022</text>
</g>
</svg>
