<svg xmlns="http://www.w3.org/2000/svg" viewBox="0 0 485.7 179.97"><defs><style>.cls-1{fill:#aa3250;}</style></defs><g id="Ebene_2" data-name="Ebene 2"><g id="Layer_1" data-name="Layer 1"><path class="cls-1" d="M484.56,159.84l-4.56.47-12.41,1.29-18.35,1.91-22.39,2.33-24.4,2.54L377.7,171l-23.09,2.4-19.51,2-14,1.46-4.35.46a16.16,16.16,0,0,0-2.3.24,2.66,2.66,0,0,1-.28,0l1.2,1.2L312,146.1l-.48-4.61c-.15-1.53-2.56-1.54-2.4,0l3.38,32.66.48,4.62c.06.59.5,1.27,1.2,1.2l4.56-.48,12.4-1.29,18.35-1.91L371.84,174l24.4-2.54L421,168.85l23.09-2.4,19.51-2,14-1.46c2.22-.23,4.44-.45,6.65-.69l.29,0c1.52-.16,1.53-2.56,0-2.4Z"/><path class="cls-1" d="M297.51,20.13l4.56-.47,12.41-1.29,18.35-1.91,22.39-2.33,24.39-2.54L404.37,9l23.08-2.4,19.51-2,14-1.46,4.35-.46a17.59,17.59,0,0,0,2.29-.23,1.43,1.43,0,0,1,.29,0l-1.2-1.2,1.35,13.15,3.26,31.72,3.94,38.25,3.41,33.16c.55,5.35,1.05,10.7,1.65,16a1.5,1.5,0,0,0,0,.22c.15,1.53,2.56,1.54,2.4,0l-1.35-13.15-3.27-31.72-3.93-38.25L470.8,17.46c-.55-5.35-1.05-10.7-1.65-16,0-.08,0-.15,0-.22-.06-.6-.5-1.28-1.2-1.2l-4.56.47L451,1.77,432.61,3.68,410.22,6l-24.4,2.54-24.75,2.57L338,13.52l-19.51,2-14,1.46-6.65.69-.28,0c-1.52.16-1.54,2.56,0,2.4Z"/><path class="cls-1" d="M73.29,113.62l-1.8-2.32a.84.84,0,0,0-1.35-.08,5.91,5.91,0,0,1-4,1.43c-4.06,0-6.46-2.55-6.46-7.58V85.57h9.53a1,1,0,0,0,1.05-1V81.52a1,1,0,0,0-1.05-1H59.71V64.44a1,1,0,0,0-1-1h-4.2a1,1,0,0,0-1,1v16.1h-4.2a1,1,0,0,0-1,1v3.07a1,1,0,0,0,1,1h4.2v19.65c0,8.48,4.57,12.75,12.07,12.75a10.87,10.87,0,0,0,7.58-2.92C73.59,114.6,73.74,114.07,73.29,113.62Z"/><path class="cls-1" d="M1.05,117.45c-.68,0-1-.3-1-.9V99a.91.91,0,0,1,1-1H5.78a.89.89,0,0,1,.89,1v1.57c0,1.13,4,11.33,16.06,11.33,7.65,0,12.3-3.3,12.3-9.08C35,90.44,1.72,97,1.72,77.69c0-8.17,6.61-14.55,17.56-14.55,7.72,0,12.22,2.63,14.85,5.93L34,64.42a.85.85,0,0,1,1-.9h4.21a.8.8,0,0,1,.9.9V80.77a.8.8,0,0,1-.9.9H34.43a.8.8,0,0,1-.9-.9v-2.1c0-3.08-3.53-9.38-13.58-9.38-6.75,0-11,3.6-11,8.4,0,13,33.9,6.68,33.9,25.13,0,8.1-5.55,15.15-18.83,15.15-10.42,0-16-5.62-17.92-8.77l.07,7.35a.8.8,0,0,1-.9.9Z"/><path class="cls-1" d="M108.4,117.45c-2.18,0-3.23-.83-3.23-3.15v-3.83H105a17.15,17.15,0,0,1-14.62,7.58c-7,0-12.31-3.9-12.31-10.43,0-8.55,8.26-11.92,20.11-11.92h6.3v-.9c0-7.13-4-9.38-9.75-9.38-8,0-11,3.45-11.33,3.45a.92.92,0,0,1-1.12-.23L80.2,86a.75.75,0,0,1,.14-1.2C80.72,84.37,84.85,80,95,80c9.68,0,15.76,4,15.76,15v17.4h4.2a.8.8,0,0,1,.9.9v3.23a.8.8,0,0,1-.9.9Zm-3.9-17.25H98.57c-7.8,0-14,1-14,6.6,0,3.37,3,5.92,7.72,5.92,6.3,0,10.5-4.2,12.23-6.45Z"/><path class="cls-1" d="M122.43,117.45a.85.85,0,0,1-1-.9v-3.23a.85.85,0,0,1,1-.9h4.13V85.57h-4.13a.85.85,0,0,1-1-.9V81.44a.85.85,0,0,1,1-.9h8.78a.85.85,0,0,1,1,.9v9.38h.23s2.47-10.43,16.05-10.43a.91.91,0,0,1,1,1v4a.91.91,0,0,1-1,1h-1.58a13.62,13.62,0,0,0-14.1,13.5v12.6h4a.85.85,0,0,1,1,.9v3.23a.85.85,0,0,1-1,.9Z"/><path class="cls-1" d="M186,108.75a.91.91,0,0,1,.23,1.35c-.9,1.65-6.08,7.87-16,7.87-10.12,0-18.45-7.12-18.45-19.12S160.62,80,169.69,80c6.83,0,10.35,3.3,11.93,5.55h.07l-.07-4.13a.9.9,0,0,1,1-1h2.85a.85.85,0,0,1,.9,1V94.2a.83.83,0,0,1-.9.9H182a.83.83,0,0,1-.9-.9V92.92c-.07-3.23-4.12-7.65-10.65-7.65-5.62,0-12.3,4.65-12.3,13.65s6.3,13.8,12.53,13.8c6.45,0,10.87-4.12,11.92-5.85a.79.79,0,0,1,1.28-.22Z"/><path class="cls-1" d="M224.83,117.45c-2.17,0-3.23-.83-3.23-3.15V94.57c0-5.63-2.7-9.15-8.25-9.15a10.63,10.63,0,0,0-10,6.45v20.55h4c.6,0,1,.3,1,.9v3.23c0,.6-.38.9-1,.9H193c-.6,0-1-.3-1-.9v-3.23c0-.6.38-.9,1-.9h4.12V68.62H193c-.6,0-1-.3-1-.9V64.49c0-.6.38-.9,1-.9h9.45a.8.8,0,0,1,.9.9V81.22c0,1.12-.23,4-.3,4.57h.15c1.35-2.1,4.65-5.77,11.7-5.77,8.1,0,12.75,5.17,12.83,13v19.35H232a.85.85,0,0,1,1,.9v3.23a.85.85,0,0,1-1,.9Z"/><path class="cls-1" d="M243.06,99.75c.38,8.77,6.53,13,12.46,13,6.45,0,10.87-4,11.92-5.77a.86.86,0,0,1,1.35-.23l2,2c.52.45.6.9.3,1.35-1,1.65-6.08,7.87-16,7.87-10.13,0-18.45-7.12-18.45-19.12S245.39,80,254.39,80c10.73,0,16.95,7.12,16.73,18.75a.93.93,0,0,1-1.05,1Zm21.83-4.58c-.3-6.08-3.9-10.2-10.35-10.2-5.18,0-10.43,3-11.33,10.2Z"/><path class="cls-1" d="M278.17,117.45a.85.85,0,0,1-1-.9v-3.23a.85.85,0,0,1,1-.9h4.13V85.57H278a.85.85,0,0,1-1-.9V81.44a.85.85,0,0,1,1-.9h4.28V75.89c0-8.47,4.57-12.75,12.08-12.75a10.8,10.8,0,0,1,7.57,3c.53.45.6.83.23,1.28l-1.8,2.32a.87.87,0,0,1-1.28.15A6.67,6.67,0,0,0,295,68.47c-4.05,0-6.45,2.55-6.45,7.5v4.57h9.6a.85.85,0,0,1,1,.9v3.23a.85.85,0,0,1-1,.9h-9.6v26.85h6.6a.8.8,0,0,1,.9.9v3.23a.8.8,0,0,1-.9.9Z"/><path class="cls-1" d="M343.75,89.75a12.61,12.61,0,0,0,6.68-11.32C350.43,70,344.88,64,334.6,64H310.45c-.68,0-1,.3-1,.9v3.83c0,.6.38.9,1,.9h5.7v42.61h-5.7c-.68,0-1,.3-1,.9V117c0,.6.38.9,1,.9h24.23c12.82,0,18.68-6.37,18.68-15.37C353.36,96.73,351,91.85,343.75,89.75Zm-21.08-20.1h10.66c5,0,10.5,1.95,10.5,9.3,0,6.23-5.1,8.63-9.68,8.7H322.67Zm11.48,42.61H322.67V92.6H334.6c7.73,0,12.15,3.08,12.15,9.38C346.75,109.26,341.65,112.26,334.15,112.26Zm44.41-31.81c-10.42,0-18.75,7-18.75,18.83s8,19.13,18.68,19.13,18.68-7.43,18.68-19.13S389,80.45,378.56,80.45Zm-.07,32.71c-6.68,0-12.38-5.33-12.38-13.81S372,85.7,378.56,85.7s12.38,5.1,12.38,13.65S385.24,113.16,378.49,113.16Z"/><path class="cls-1" d="M426.73,94.6l23.19,22.58a4.45,4.45,0,0,0,5.93.07h0a3.53,3.53,0,0,0-.07-5.39l-55.45-50.5s-6.22,7.44-1.22,12.37c3.91,3.87,14.82,14.9,17.26,15.78,4.65,1.66,5.38.41,9,3.82l1.38,1.27"/><path class="cls-1" d="M422,94.48l-20.44,17.38a3.54,3.54,0,0,0-.07,5.39,4.45,4.45,0,0,0,5.93-.07l21.5-20.89S423.8,92.94,422,94.48Zm38.45-26-13.3,12.53h0a.66.66,0,0,1-.83,0,.53.53,0,0,1,.07-.79h0l0,0,13.3-12.47c2.6-3.45-1-1-1-1L445.06,79h0a.7.7,0,0,1-.9,0,.52.52,0,0,1,0-.77v0l13.4-12.57c1.14-1,.84-1.64.84-1.64-.78-.3-1.9.75-1.9.75l-14,12h0A.63.63,0,0,1,442,77a.25.25,0,0,1-.2-.08l0,0a.43.43,0,0,1,.06-.65l0,0,14-12.16c2.08-2.58-.94-1-.94-1l-7,5.33-11,8.51a15.58,15.58,0,0,0-1.86,1.6,3.82,3.82,0,0,0-.79,1.24,3.23,3.23,0,0,0,.83,3.66L429.6,88c1.31,2.15,5.65,2.07,5.65,2.07l3.42-3.32a6.73,6.73,0,0,0,4.09.81A3.8,3.8,0,0,0,444,87c.6-.55,1.28-1.1,1.9-1.65,1.11-1,2.12-2.07,3.17-3.13q1.9-1.92,3.8-3.87t4.1-4.16l3.3-3.35,1.34-1.36C463.47,66.47,460.44,68.52,460.44,68.52Z"/><path class="cls-1" d="M.22,144.47a.19.19,0,0,1-.22-.21v-.86c0-.14.07-.21.22-.21H1.51v-9.65H.22a.19.19,0,0,1-.22-.21v-.86c0-.14.07-.21.22-.21h9a.2.2,0,0,1,.22.21v2.73a.2.2,0,0,1-.22.22H8.33c-.14,0-.2-.08-.2-.22v-1.66H3v4.21h4.3a.19.19,0,0,1,.22.21v.86a.19.19,0,0,1-.22.21H3v4.16H8.11v-1.66a.19.19,0,0,1,.22-.21h.92a.2.2,0,0,1,.22.21v2.73a.2.2,0,0,1-.22.21Z"/><path class="cls-1" d="M18.12,144.47c-.15,0-.22-.07-.22-.21v-4a.2.2,0,0,1,.22-.22h1.07a.2.2,0,0,1,.21.22v.35A3.65,3.65,0,0,0,23,143.21c1.74,0,2.79-.75,2.79-2.06,0-2.8-7.55-1.32-7.55-5.69,0-1.85,1.5-3.3,4-3.3a4.05,4.05,0,0,1,3.37,1.34l0-1.05c0-.14.09-.2.23-.2h1a.18.18,0,0,1,.2.2v3.71a.18.18,0,0,1-.2.2H25.69a.18.18,0,0,1-.21-.2v-.48c0-.7-.8-2.13-3.07-2.13-1.53,0-2.5.82-2.5,1.91,0,3,7.68,1.51,7.68,5.69,0,1.84-1.26,3.44-4.27,3.44a4.65,4.65,0,0,1-4.06-2l0,1.66a.19.19,0,0,1-.21.21Z"/><path class="cls-1" d="M39.18,144.47a.21.21,0,0,1-.22-.22v-.84a.21.21,0,0,1,.22-.22h1.3v-9.65H37.26v1.8a.23.23,0,0,1-.23.24h-1a.23.23,0,0,1-.23-.24v-2.86a.22.22,0,0,1,.23-.22H46.32a.22.22,0,0,1,.24.22v2.86a.23.23,0,0,1-.24.24h-1a.22.22,0,0,1-.22-.24v-1.8H42v9.65h1.19a.22.22,0,0,1,.23.22v.84a.22.22,0,0,1-.23.22Z"/><path class="cls-1" d="M55.08,144.59a.79.79,0,0,1-.82-.8.81.81,0,0,1,1.62,0A.79.79,0,0,1,55.08,144.59Z"/><path class="cls-1" d="M76.14,144.47a.2.2,0,0,1-.22-.21v-.52c0-5.07,7.21-4.39,7.21-7.86a2.49,2.49,0,0,0-2.69-2.36c-2,0-2.87,1.12-2.87,2.47,0,.13-.08.2-.22.2H76.24a.19.19,0,0,1-.2-.2c0-1.91,1.31-3.83,4.4-3.83,2.74,0,4.22,1.73,4.22,3.62,0,4.39-6.83,4.1-7.07,7.41h5.78V142a.19.19,0,0,1,.2-.21h1.07a.19.19,0,0,1,.22.21v2.29a.19.19,0,0,1-.22.21Z"/><path class="cls-1" d="M93,138.3c0-3.57,1.83-6.14,4.91-6.14s4.91,2.57,4.91,6.14-1.78,6.29-4.91,6.29S93,142,93,138.3Zm8.24,0c0-3-1.29-4.85-3.33-4.85s-3.33,1.82-3.33,4.85,1.25,4.86,3.33,4.86S101.2,141.48,101.2,138.35Z"/><path class="cls-1" d="M111.09,144.47a.2.2,0,0,1-.22-.21v-.52c0-5.07,7.21-4.39,7.21-7.86a2.49,2.49,0,0,0-2.69-2.36c-2,0-2.87,1.12-2.87,2.47,0,.13-.08.2-.22.2h-1.1a.19.19,0,0,1-.21-.2c0-1.91,1.31-3.83,4.4-3.83,2.74,0,4.22,1.73,4.22,3.62,0,4.39-6.83,4.1-7.07,7.41h5.78V142a.19.19,0,0,1,.2-.21h1.07a.19.19,0,0,1,.22.21v2.29a.19.19,0,0,1-.22.21Z"/><path class="cls-1" d="M127.91,138.3c0-3.57,1.83-6.14,4.91-6.14s4.91,2.57,4.91,6.14-1.78,6.29-4.91,6.29S127.91,142,127.91,138.3Zm8.24,0c0-3-1.29-4.85-3.33-4.85s-3.33,1.82-3.33,4.85,1.26,4.86,3.33,4.86S136.15,141.48,136.15,138.35Z"/></g></g></svg>